<svg xmlns="http://www.w3.org/2000/svg" xmlns:xlink="http://www.w3.org/1999/xlink" id="Capa_1" x="0px" y="0px" width="500px" height="207px" viewBox="0 0 500 207" xml:space="preserve">
<polygon fill="#EBEFF2" points="382.658,174.61 378.631,174.61 378.631,177.294 379.973,177.294 379.973,191.785 382.658,190.564   "></polygon>
<polygon fill="#EBEFF2" points="400.622,174.61 396.595,174.61 396.595,177.294 397.939,177.294 397.939,191.785 400.622,190.564   "></polygon>
<path fill="#EBEFF2" d="M340.353,178.806c0,3.375,7.313,1.232,7.313,7.298c0,2.875-2.422,5.109-5.167,5.109  c-2.679,0-4.845-2.1-4.845-4.654h2.699c0,1.119,0.922,1.985,2.146,1.985c1.362,0,2.469-1.094,2.469-2.44  c0-3.693-7.313-1.505-7.313-7.298c0-2.668,2.309-4.675,4.845-4.675c2.675,0,4.871,2.032,4.871,4.675h-2.723  c0-1.14-0.926-1.983-2.148-1.983C341.274,176.822,340.353,177.666,340.353,178.806"></path>
<path fill="#EBEFF2" d="M365.613,187.597c-0.808,2.102-2.959,3.617-5.333,3.617c-3.046,0-5.759-2.575-5.759-5.809  c0-3.071,2.555-5.805,5.759-5.805c2.957,0,5.76,2.508,5.76,5.805c0,0.454-0.046,0.885-0.136,1.289h-8.47  c0.471,1.11,1.569,1.877,2.846,1.877c0.875,0,1.683-0.385,2.262-0.974H365.613z M357.345,184.346h5.872  c-0.427-1.197-1.593-2.078-2.937-2.078C358.913,182.268,357.77,183.148,357.345,184.346"></path>
<path fill="#EBEFF2" d="M378.328,187.597c-0.808,2.102-2.957,3.617-5.334,3.617c-3.047,0-5.758-2.575-5.758-5.809  c0-3.071,2.553-5.805,5.758-5.805c2.956,0,5.759,2.508,5.759,5.805c0,0.454-0.042,0.885-0.134,1.289h-8.47  c0.471,1.11,1.569,1.877,2.845,1.877c0.876,0,1.682-0.385,2.265-0.974H378.328z M370.062,184.346h5.868  c-0.423-1.197-1.591-2.078-2.936-2.078C371.628,182.268,370.484,183.148,370.062,184.346"></path>
<polygon fill="#EBEFF2" points="354.095,182.731 354.095,180.023 352.111,180.023 352.111,174.61 349.427,174.61 349.427,180.023   348.061,180.023 348.061,182.731 349.427,182.731 349.427,191.74 352.111,190.564 352.111,182.731 "></polygon>
<path fill="#EBEFF2" d="M412.942,187.607c-0.81,2.104-2.962,3.621-5.34,3.621c-3.052,0-5.767-2.578-5.767-5.815  c0-3.076,2.557-5.813,5.767-5.813c2.959,0,5.764,2.511,5.764,5.813c0,0.454-0.042,0.884-0.134,1.29h-8.479  c0.472,1.109,1.569,1.878,2.85,1.878c0.873,0,1.683-0.385,2.264-0.974H412.942z M404.663,184.351h5.879  c-0.425-1.199-1.595-2.082-2.939-2.082C406.234,182.269,405.088,183.151,404.663,184.351"></path>
<polygon fill="#EBEFF2" points="417.572,184.978 419.443,183.091 415.968,179.599 414.094,179.599 413.972,179.599 413.972,182.269   414.871,182.269 "></polygon>
<polygon fill="#EBEFF2" points="425.736,182.269 425.736,179.599 425.627,179.599 423.753,179.599 423.753,179.601 419.858,183.526   416.829,186.583 414.867,188.557 413.974,188.557 413.974,191.226 414.092,191.226 415.959,191.226 415.965,191.226   419.858,187.301 423.753,191.226 425.627,191.226 425.736,191.226 425.736,188.557 424.848,188.557 421.731,185.413   424.848,182.269 "></polygon>
<path fill="#EBEFF2" d="M390.938,179.622c-1.37,0-2.648,0.499-3.679,1.381l-0.585-1.16h-2.803v2.668h1.303v14.172l2.646-1.259  v-5.103c0.919,0.589,1.995,0.928,3.117,0.928c3.052,0,5.765-2.58,5.765-5.813C396.703,182.359,394.146,179.622,390.938,179.622   M390.938,188.603c-1.681,0-3.052-1.357-3.117-3.03v-0.25c0.065-1.695,1.437-3.028,3.117-3.028c1.728,0,3.142,1.4,3.142,3.143  S392.666,188.603,390.938,188.603"></path>
<path fill="#EBEFF2" d="M313.42,184.599h0.084c0.359-1.265,1.243-2.237,2.854-2.237c2.058,0,3.17,1.432,3.17,3.983  c0,2.566-1.16,3.981-3.071,3.981c-1.617,0-2.611-0.97-2.97-2.27h-0.066v2.09h-0.865V179.58h0.865V184.599z M318.644,186.329  c0-2.141-0.817-3.161-2.515-3.161c-1.646,0-2.709,1.101-2.709,2.88v0.593c0,1.71,1.063,2.895,2.709,2.895  C317.794,189.537,318.644,188.484,318.644,186.329"></path>
<path fill="#EBEFF2" d="M321.911,192.764l0.148-0.824c0.324,0.066,0.617,0.098,0.946,0.098c0.932,0,1.55-0.246,2.302-1.941  l-3.46-7.569h0.961l1.143,2.665c0.442,1.086,1.227,2.898,1.701,4.163h0.158c0.475-1.282,1.162-3.059,1.601-4.146l1.078-2.682h0.93  l-3.342,7.717c-0.819,1.859-1.716,2.619-3.086,2.619C322.53,192.863,322.189,192.812,321.911,192.764"></path>
<path fill="#EBEFF2" d="M74.803,185.192c0-3.144,1.762-5.118,4.701-5.118c2.497,0,4.014,1.399,4.375,3.72l-1.42,0.281  c-0.344-1.712-1.273-2.668-2.973-2.668c-2.185,0-3.181,1.548-3.181,3.786c0,2.354,0.996,3.835,3.15,3.835  c1.828,0,2.71-0.988,3.052-2.749l1.42,0.265c-0.342,2.352-1.879,3.801-4.472,3.801C76.468,190.343,74.803,188.337,74.803,185.192"></path>
<path fill="#EBEFF2" d="M92.385,187.381h-4.42l-0.996,2.765h-1.567l3.801-9.875h1.991l3.788,9.875h-1.601L92.385,187.381z   M88.371,186.229h3.59l-0.441-1.218c-0.408-1.102-0.832-2.37-1.143-3.406h-0.408c-0.326,1.053-0.75,2.304-1.156,3.406  L88.371,186.229z M88.501,178.526l4.144-1.529l0.378,1.167l-4.277,1.136L88.501,178.526z"></path>
<path fill="#EBEFF2" d="M99.179,186.624v3.522h-1.501v-9.875h3.818c2.302,0,3.461,1.071,3.461,3.177  c0,1.842-1.208,3.175-3.428,3.175H99.179z M99.179,181.571v3.785h2.187c1.484,0,2.106-0.591,2.106-1.893  c0-1.315-0.54-1.892-2.12-1.892H99.179z"></path>
<path fill="#EBEFF2" d="M107.343,187.068l1.42-0.312c0.278,1.547,1.19,2.337,2.872,2.337c1.551,0,2.237-0.61,2.237-1.533  c0-0.955-0.62-1.415-2.58-1.759c-2.676-0.478-3.542-1.481-3.542-2.979c0-1.68,1.206-2.749,3.608-2.749  c2.414,0,3.393,1.168,3.769,2.928l-1.484,0.298c-0.293-1.316-0.833-1.992-2.352-1.992c-1.403,0-2.058,0.543-2.058,1.433  c0,0.823,0.459,1.382,2.596,1.777c2.841,0.543,3.541,1.563,3.541,2.944c0,1.746-1.108,2.88-3.785,2.88  C108.779,190.326,107.604,188.978,107.343,187.068"></path>
<path fill="#EBEFF2" d="M125.251,186.329v-6.058h1.501v6.139c0,2.551-1.388,3.916-3.967,3.916c-2.611,0-4.113-1.333-4.113-3.916  v-6.139h1.501v5.974c0,1.614,0.604,2.749,2.611,2.749C124.697,188.994,125.251,187.941,125.251,186.329"></path>
<polygon fill="#EBEFF2" points="132.077,188.778 136.647,188.778 136.647,190.146 130.577,190.146 130.577,180.271 132.077,180.271   "></polygon>
<path fill="#EBEFF2" d="M145.809,187.381h-4.425l-0.995,2.765h-1.566l3.802-9.875h1.991l3.786,9.875h-1.597L145.809,187.381z   M141.792,186.229h3.593l-0.443-1.218c-0.406-1.101-0.833-2.37-1.142-3.406h-0.406c-0.329,1.053-0.753,2.305-1.162,3.406  L141.792,186.229z"></path>
<path fill="#EBEFF2" d="M150.152,187.068l1.42-0.312c0.277,1.547,1.189,2.337,2.873,2.337c1.551,0,2.236-0.61,2.236-1.533  c0-0.955-0.62-1.415-2.576-1.759c-2.679-0.478-3.545-1.481-3.545-2.979c0-1.68,1.206-2.749,3.608-2.749  c2.416,0,3.395,1.168,3.77,2.928l-1.485,0.298c-0.293-1.316-0.835-1.992-2.349-1.992c-1.407,0-2.062,0.543-2.062,1.433  c0,0.823,0.459,1.382,2.597,1.777c2.841,0.543,3.541,1.563,3.541,2.944c0,1.746-1.107,2.88-3.785,2.88  C151.588,190.326,150.413,188.978,150.152,187.068"></path>
<polygon fill="#EBEFF2" points="173.006,190.146 173.006,185.899 167.783,185.899 167.783,190.146 166.283,190.146 166.283,180.271   167.783,180.271 167.783,184.535 173.006,184.535 173.006,180.271 174.508,180.271 174.508,190.146 "></polygon>
<path fill="#EBEFF2" d="M184.194,187.381h-4.423l-0.996,2.765h-1.567l3.799-9.875h1.991l3.789,9.875h-1.597L184.194,187.381z   M180.177,186.229h3.59l-0.439-1.218c-0.409-1.101-0.833-2.37-1.143-3.406h-0.409c-0.326,1.053-0.75,2.305-1.158,3.406  L180.177,186.229z"></path>
<path fill="#EBEFF2" d="M189.483,180.271h3.983c2.236,0,3.264,0.857,3.264,2.517c0,1.268-0.718,2.008-1.928,2.305v0.148  c1.65,0.18,2.402,0.856,2.402,2.237c0,1.564-0.979,2.667-3.398,2.667h-4.323V180.271z M190.985,181.471v3.196h2.432  c1.107,0,1.863-0.446,1.863-1.646c0-1.038-0.508-1.55-1.765-1.55H190.985z M190.985,185.783v3.178h2.775  c1.355,0,1.961-0.641,1.961-1.597c0-1.003-0.524-1.581-2.042-1.581H190.985z"></path>
<rect x="200.392" y="180.271" fill="#EBEFF2" width="1.5" height="9.875"></rect>
<polygon fill="#EBEFF2" points="204.863,180.271 212.698,180.271 212.698,181.655 209.532,181.655 209.532,190.146 208.029,190.146   208.029,181.655 204.863,181.655 "></polygon>
<path fill="#EBEFF2" d="M220.081,187.381h-4.424l-0.995,2.765h-1.567l3.802-9.875h1.991l3.786,9.875h-1.598L220.081,187.381z   M216.063,186.229h3.589l-0.439-1.218c-0.409-1.101-0.833-2.37-1.143-3.406h-0.409c-0.326,1.053-0.75,2.305-1.158,3.406  L216.063,186.229z"></path>
<path fill="#EBEFF2" d="M224.113,185.192c0-3.144,1.762-5.118,4.701-5.118c2.496,0,4.016,1.399,4.374,3.72l-1.42,0.281  c-0.345-1.712-1.274-2.668-2.97-2.668c-2.189,0-3.185,1.548-3.185,3.786c0,2.354,0.996,3.835,3.151,3.835  c1.829,0,2.709-0.988,3.053-2.749l1.42,0.265c-0.344,2.352-1.877,3.801-4.473,3.801  C225.777,190.343,224.113,188.337,224.113,185.192"></path>
<rect x="236.49" y="180.271" fill="#EBEFF2" width="1.501" height="9.875"></rect>
<path fill="#EBEFF2" d="M241.239,185.192c0-3.077,1.781-5.117,4.849-5.117c3.085,0,4.848,2.04,4.848,5.117  c0,3.061-1.731,5.153-4.848,5.153C242.953,190.345,241.239,188.252,241.239,185.192 M249.451,185.176c0-2.239-1.079-3.77-3.363-3.77  c-2.286,0-3.361,1.531-3.361,3.77c0,2.286,1.046,3.851,3.361,3.851C248.388,189.027,249.451,187.48,249.451,185.176"></path>
<path fill="#EBEFF2" d="M257.551,185.24c-0.604-1.052-1.29-2.483-1.78-3.603l-0.341,0.017c0.097,1.398,0.159,3.406,0.159,4.804  v3.688h-1.4v-9.875h2.168l2.53,4.279c0.785,1.333,1.535,2.911,1.992,4h0.313c-0.085-1.367-0.167-3.196-0.167-4.576v-3.704h1.407  v9.875h-1.994L257.551,185.24z"></path>
<path fill="#EBEFF2" d="M272.114,187.381h-4.424l-0.995,2.765h-1.567l3.801-9.875h1.994l3.784,9.875h-1.597L272.114,187.381z   M268.096,186.229h3.594l-0.442-1.218c-0.409-1.101-0.834-2.37-1.143-3.406h-0.41c-0.325,1.053-0.749,2.305-1.156,3.406  L268.096,186.229z"></path>
<polygon fill="#EBEFF2" points="278.904,188.778 283.475,188.778 283.475,190.146 277.404,190.146 277.404,180.271 278.904,180.271   "></polygon>
<polygon fill="#EBEFF2" points="286.563,180.271 293.368,180.271 293.368,181.604 288.065,181.604 288.065,184.468 292.829,184.468   292.829,185.784 288.065,185.784 288.065,188.813 293.354,188.813 293.354,190.146 286.563,190.146 "></polygon>
<path fill="#EBEFF2" d="M296.296,187.068l1.418-0.312c0.279,1.547,1.192,2.337,2.876,2.337c1.548,0,2.231-0.61,2.231-1.533  c0-0.955-0.617-1.415-2.576-1.759c-2.677-0.478-3.545-1.481-3.545-2.979c0-1.68,1.21-2.749,3.608-2.749  c2.419,0,3.396,1.168,3.771,2.928l-1.485,0.298c-0.29-1.316-0.831-1.992-2.35-1.992c-1.407,0-2.058,0.543-2.058,1.433  c0,0.823,0.458,1.382,2.596,1.777c2.84,0.543,3.543,1.563,3.543,2.944c0,1.746-1.112,2.88-3.789,2.88  C297.732,190.326,296.559,188.978,296.296,187.068"></path>
<path fill="#EBEFF2" d="M206.516,20.481l56.593,118.024c0.373,0.748,0.743,1.686,0.743,2.622c0,2.06-1.671,3.746-3.715,3.746  c-1.486,0-2.974-0.936-3.53-2.06l-13.436-27.352h-80.438l-13.353,27.352c-0.558,1.125-2.044,2.06-3.532,2.06  c-2.041,0-3.715-1.686-3.715-3.746c0-0.937,0.372-1.874,0.746-2.622l56.577-118.024c0.742-1.498,1.857-2.621,3.528-2.621  C204.658,17.86,205.773,18.983,206.516,20.481 M239.579,107.967l-36.221-77.742h-0.741l-36.223,77.742H239.579z"></path>
<path fill="#EBEFF2" d="M282.876,21.794c0-2.248,1.671-3.934,3.902-3.934h67.068c26.756,0,48.492,21.918,48.492,48.707  c0,26.977-21.736,48.894-48.306,48.894h-63.355v25.477c0,2.249-1.671,3.935-3.899,3.935c-2.231,0-3.902-1.686-3.902-3.935V21.794z   M354.033,25.352h-63.355v82.615h63.169c22.296,0,40.504-18.545,40.504-41.4C394.351,43.899,376.143,25.352,354.033,25.352"></path>
<path fill="#EBEFF2" d="M395.096,137.191c13.374-3.183,25.268-26.039,33.999-44.959l10.587-22.669  c9.291-20.042,21.555-46.833,43.662-51.515c0.372,0,0.743-0.188,1.302-0.188c2.229,0,3.901,1.687,3.901,3.934  c0,2.06-1.301,3.372-3.717,3.745c-18.393,4.123-29.727,28.852-38.272,47.209l-10.587,22.667  c-8.733,18.546-19.697,40.84-34.373,47.585c-1.673,0.749-4.273,1.871-6.317,1.871s-3.717-1.686-3.717-3.747  C391.563,138.878,393.051,137.568,395.096,137.191"></path>
<path fill="#EBEFF2" d="M125.699,107.966c-1.484,0-2.785,0.937-3.346,1.873c-9.472,15.921-27.125,27.542-47.375,27.542  c-30.283,0-54.997-25.104-54.997-56.015c0-30.908,24.714-56.013,54.997-56.013c20.25,0,37.903,11.621,47.375,27.543  c0.562,0.936,1.862,1.872,3.346,1.872c2.229,0,3.902-1.688,3.902-3.935c0-0.75-0.184-1.495-0.557-2.061  C117.156,29.287,96.901,17.86,74.978,17.86c-34.74,0-62.985,28.479-62.985,63.505c0,35.03,28.246,63.507,62.985,63.507  c21.923,0,42.178-11.427,54.066-30.91c0.373-0.566,0.557-1.311,0.557-2.061C129.601,109.653,127.928,107.966,125.699,107.966"></path>
</svg>