<svg xmlns="http://www.w3.org/2000/svg" xmlns:xlink="http://www.w3.org/1999/xlink" id="Capa_1" x="0px" y="0px" width="500px" height="500px" viewBox="0 0 500 500" xml:space="preserve">
<g>
	<path fill="#00010E" d="M221.234,333.717l-1.214-0.646l-113.705-60.552v-122.77l114.921-61.214l114.92,61.214v5.954   l-111.255,59.248v116.816L221.234,333.717z M111.486,269.413l108.244,57.643v-115.21l111.015-59.12l-109.509-58.33l-109.75,58.459   V269.413z"></path>
	<polygon fill="#00010E" points="333.571,154.15 333.571,270.965 222.316,330.214 222.316,213.398  "></polygon>
	<path fill="#00010E" d="M221.454,331.648V212.881l112.979-60.167v118.768l-0.457,0.242L221.454,331.648z M223.178,213.916v114.862   l109.531-58.33V155.585L223.178,213.916z"></path>
	<path fill="#00010E" d="M334.651,394.313L219.73,333.111v-5.954l111.255-59.249V151.096l3.664-1.955l114.922,61.202v122.769   L334.651,394.313z M225.142,330.134l109.51,58.319L444.4,330.006V213.447l-108.244-57.644v115.209L225.142,330.134z"></path>
	
		<rect x="325.627" y="299.426" transform="matrix(0.8771 0.4802 -0.4802 0.8771 192.9921 -150.3225)" fill="#00010E" width="129.302" height="5.173"></rect>
	<rect x="342.304" y="159.026" fill="#00010E" width="5.171" height="116.98"></rect>
	<rect x="354.063" y="164.772" fill="#00010E" width="5.17" height="116.98"></rect>
	<rect x="365.82" y="172.061" fill="#00010E" width="5.171" height="116.981"></rect>
	<rect x="377.579" y="177.768" fill="#00010E" width="5.171" height="116.981"></rect>
	<rect x="389.337" y="183.512" fill="#00010E" width="5.171" height="116.981"></rect>
	<rect x="401.096" y="190.762" fill="#00010E" width="5.171" height="116.98"></rect>
	<rect x="411.363" y="196.508" fill="#00010E" width="5.171" height="116.98"></rect>
	<rect x="423.121" y="202.254" fill="#00010E" width="5.172" height="116.98"></rect>
	<rect x="434.88" y="209.502" fill="#00010E" width="5.171" height="116.98"></rect>
	
		<rect x="100.957" y="179.763" transform="matrix(0.8771 0.4802 -0.4802 0.8771 107.9204 -57.1281)" fill="#00010E" width="129.302" height="5.173"></rect>
</g>
</svg>