<svg xmlns="http://www.w3.org/2000/svg" viewBox="0 0 456.54 87.44"><defs><style>.ac04a673-e73e-41a0-8727-052de2a211ab{fill:#fff;}.a0790761-b711-4e07-a3c5-0d7fc091695e{fill:#3c3d43;}</style></defs><title>LOGO SIMPLEX</title><g id="a9e62c1a-87de-4ea5-ba07-1a20ef913d3d" data-name="Capa 2"><g id="a67a8813-4034-484c-89ab-d4b640deec28" data-name="Capa 1"><path class="ac04a673-e73e-41a0-8727-052de2a211ab" d="M104.84,40.77a19.84,19.84,0,0,0-5.3-2.68,56.23,56.23,0,0,0-6.11-1.71c-2-.49-4-.92-6-1.32a43.83,43.83,0,0,1-5.19-1.37,10.74,10.74,0,0,1-3.69-2,4,4,0,0,1-1.41-3.12A3.83,3.83,0,0,1,78,26a5.36,5.36,0,0,1,2-1.47,9.46,9.46,0,0,1,2.59-.66c.93-.09,1.81-.15,2.62-.15a14.09,14.09,0,0,1,6.65,1.48c1.9,1,2.94,2.83,3.12,5.6h13.63a16.88,16.88,0,0,0-2.46-8,16.15,16.15,0,0,0-5.21-5.1A21.68,21.68,0,0,0,93.78,15a41.22,41.22,0,0,0-8.22-.8,44.17,44.17,0,0,0-8.27.77A22.61,22.61,0,0,0,70,17.56a14.51,14.51,0,0,0-5.19,5.08,15.83,15.83,0,0,0-2,8.28,11.29,11.29,0,0,0,1.41,5.81A12.44,12.44,0,0,0,68,40.66a21.7,21.7,0,0,0,5.28,2.53c2,.63,4,1.19,6.11,1.65a85.6,85.6,0,0,1,12,3.24c2.87,1.08,4.28,2.68,4.28,4.84a5.4,5.4,0,0,1-.89,3.18,7,7,0,0,1-2.27,2,10.72,10.72,0,0,1-3,1.12,16.62,16.62,0,0,1-3.18.35,16.19,16.19,0,0,1-4.09-.5,10.18,10.18,0,0,1-3.47-1.56,8.07,8.07,0,0,1-2.48-2.74,7.72,7.72,0,0,1-1-4H61.64A17.39,17.39,0,0,0,64,59.53a17,17,0,0,0,5.54,5.6,23.51,23.51,0,0,0,7.72,3,43.5,43.5,0,0,0,8.88.9,43.88,43.88,0,0,0,8.73-.86,22,22,0,0,0,7.61-3,16.4,16.4,0,0,0,5.4-5.58A16.67,16.67,0,0,0,110,51a12,12,0,0,0-1.41-6.1,12.59,12.59,0,0,0-3.72-4.13"></path><rect class="ac04a673-e73e-41a0-8727-052de2a211ab" x="113.47" width="14.33" height="10.8"></rect><rect class="ac04a673-e73e-41a0-8727-052de2a211ab" x="113.47" y="15.59" width="14.33" height="52.17"></rect><path class="ac04a673-e73e-41a0-8727-052de2a211ab" d="M207.83,18.41a15.09,15.09,0,0,0-6.05-3.23,27.85,27.85,0,0,0-7.67-1,16.76,16.76,0,0,0-9.43,2.63,21.9,21.9,0,0,0-6.31,6,12.78,12.78,0,0,0-6.2-6.75,20.89,20.89,0,0,0-9-1.92A18.47,18.47,0,0,0,154,16.39a20.51,20.51,0,0,0-6.8,6.25H147V15.58H133.46V67.75h14.33V37.47a14.68,14.68,0,0,1,1.11-6.19,10,10,0,0,1,2.69-3.63,8.93,8.93,0,0,1,3.21-1.72,10.66,10.66,0,0,1,2.68-.46,9.44,9.44,0,0,1,5.2,1.17,6.44,6.44,0,0,1,2.53,3.07,13.46,13.46,0,0,1,.86,4.19c.05,1.51.09,3.05.09,4.6V67.75h14.33V38.68a31.84,31.84,0,0,1,.35-4.78,12.06,12.06,0,0,1,1.42-4.24,8.18,8.18,0,0,1,2.91-3,9.19,9.19,0,0,1,4.9-1.17,9.85,9.85,0,0,1,4.8,1,6.76,6.76,0,0,1,2.67,2.74,10.32,10.32,0,0,1,1.11,4c.13,1.54.21,3.18.21,4.93V67.75h14.33V32.84a23.86,23.86,0,0,0-1.42-8.64,14.74,14.74,0,0,0-3.94-5.79"></path><path class="a0790761-b711-4e07-a3c5-0d7fc091695e" d="M270.11,31.57a27,27,0,0,0-4.34-8.93,22,22,0,0,0-7.38-6.14,22.52,22.52,0,0,0-10.59-2.33,20.33,20.33,0,0,0-8.89,1.92,15.86,15.86,0,0,0-6.65,6.16h-.2V15.58H218.44V87.44h14.33V61.3h.2a17.17,17.17,0,0,0,6.7,5.8,20.46,20.46,0,0,0,8.93,2,21.39,21.39,0,0,0,10-2.22,21,21,0,0,0,7.16-6,25.85,25.85,0,0,0,4.31-8.58,36.6,36.6,0,0,0,1.41-10.09,40.61,40.61,0,0,0-1.41-10.65M256.57,48a14.67,14.67,0,0,1-2.07,5.31,11.62,11.62,0,0,1-19.46,0A15.48,15.48,0,0,1,232.92,48a28,28,0,0,1-.66-6.14,31.45,31.45,0,0,1,.6-6.27,16,16,0,0,1,2.07-5.35,11.82,11.82,0,0,1,3.83-3.78,11,11,0,0,1,5.9-1.47,10.83,10.83,0,0,1,5.81,1.47,12.09,12.09,0,0,1,3.89,3.84,16.54,16.54,0,0,1,2.17,5.4,29.41,29.41,0,0,1,.65,6.16,30.66,30.66,0,0,1-.61,6.14"></path><rect class="a0790761-b711-4e07-a3c5-0d7fc091695e" x="274.44" width="14.33" height="67.76"></rect><path class="a0790761-b711-4e07-a3c5-0d7fc091695e" d="M326.46,56.2A12.85,12.85,0,0,1,319,58.37q-6,0-9.29-3.13c-2.15-2.08-3.32-5.45-3.53-10.08h37.65a37,37,0,0,0-1-11.62,28.45,28.45,0,0,0-4.58-9.88,23.08,23.08,0,0,0-8.14-6.92,24.82,24.82,0,0,0-11.59-2.57,27,27,0,0,0-10.85,2.12,25.26,25.26,0,0,0-13.88,14.54,30.56,30.56,0,0,0-1.92,10.89,31.71,31.71,0,0,0,1.88,11.11A25,25,0,0,0,299,61.5a23.22,23.22,0,0,0,8.38,5.6,30,30,0,0,0,11.11,2,27.36,27.36,0,0,0,15.13-4q6.25-4.05,9.29-13.44H330.29c-.46,1.62-1.75,3.14-3.83,4.6M306.82,32.63a10.59,10.59,0,0,1,5.57-6.51A12.42,12.42,0,0,1,318.08,25q5.25,0,7.82,2.84c1.71,1.88,2.9,4.63,3.59,8.28H306.17a16.63,16.63,0,0,1,.65-3.45"></path><polygon class="a0790761-b711-4e07-a3c5-0d7fc091695e" points="373.56 40.01 390.71 15.59 374.86 15.59 365.78 29.21 356.6 15.59 340.26 15.59 357.4 40.3 338.64 67.76 354.68 67.76 365.59 51.3 376.48 67.76 392.84 67.76 373.56 40.01"></polygon><polygon class="a0790761-b711-4e07-a3c5-0d7fc091695e" points="392.91 28.27 401.82 15.56 456.54 15.56 451.56 28.83 393.2 28.83 392.91 28.27"></polygon><polygon class="a0790761-b711-4e07-a3c5-0d7fc091695e" points="394.16 54.19 403.66 67.75 441.18 67.75 446.49 53.63 394.45 53.63 394.16 54.19"></polygon><path class="ac04a673-e73e-41a0-8727-052de2a211ab" d="M52.15,58.21V53.63H3.91L0,67.75H58.68v-.51l-.34-.1a9.55,9.55,0,0,1-6.19-8.93"></path><path class="ac04a673-e73e-41a0-8727-052de2a211ab" d="M59,15.55H15.36L11.45,28.83h41V25.09a9.52,9.52,0,0,1,6.26-9l.22-.06Z"></path></g></g></svg>