<svg xmlns="http://www.w3.org/2000/svg" viewBox="0 0 275.38 73.4"><defs><style>.b7aa3e8f-e069-4048-8df3-b1d673051e19{fill:#ebedf0;}</style></defs><title>LOGO BLANCO CAPS</title><g id="b9b22897-7a36-4f82-96c0-a5547c78a2ba" data-name="Capa 2"><g id="f6b0dffc-ffd6-4fa0-83c9-774c6cb7ee75" data-name="Capa 1"><path class="b7aa3e8f-e069-4048-8df3-b1d673051e19" d="M112.41,1.52l32.7,68.2a3.58,3.58,0,0,1,.43,1.51,2.17,2.17,0,0,1-2.15,2.17,2.4,2.4,0,0,1-2-1.19L133.59,56.4H87.11L79.39,72.21a2.4,2.4,0,0,1-2,1.19,2.17,2.17,0,0,1-2.15-2.17,3.58,3.58,0,0,1,.43-1.51l32.7-68.2a2.13,2.13,0,0,1,4.08,0m19.1,50.55L110.58,7.14h-.43L89.22,52.07Z"></path><path class="b7aa3e8f-e069-4048-8df3-b1d673051e19" d="M156.53,2.27A2.21,2.21,0,0,1,158.79,0h38.75a28.2,28.2,0,0,1,.11,56.4H161V71.12a2.26,2.26,0,1,1-4.51,0Zm41.12,2.06H161V52.07h36.5c12.89,0,23.41-10.72,23.41-23.92S210.43,4.33,197.65,4.33"></path><path class="b7aa3e8f-e069-4048-8df3-b1d673051e19" d="M221.38,69c7.73-1.84,14.6-15,19.65-26l6.12-13.1C252.51,18.3,259.6,2.81,272.38.11c.21,0,.42-.11.75-.11a2.2,2.2,0,0,1,2.25,2.27c0,1.19-.75,1.95-2.15,2.17-10.62,2.38-17.17,16.67-22.11,27.28L245,44.82c-5.05,10.71-11.38,23.6-19.86,27.49a10.13,10.13,0,0,1-3.65,1.09,2.17,2.17,0,0,1-2.15-2.17,2.23,2.23,0,0,1,2-2.27"></path><path class="b7aa3e8f-e069-4048-8df3-b1d673051e19" d="M65.71,52.07a2.38,2.38,0,0,0-1.94,1.08A32.22,32.22,0,0,1,36.4,69.07C18.9,69.07,4.62,54.56,4.62,36.7S18.9,4.33,36.4,4.33A32.2,32.2,0,0,1,63.77,20.25a2.38,2.38,0,0,0,1.94,1.08A2.22,2.22,0,0,0,68,19.05a2.25,2.25,0,0,0-.32-1.19A36.5,36.5,0,1,0,36.4,73.4,36.51,36.51,0,0,0,67.64,55.54a2.26,2.26,0,0,0,.32-1.2,2.21,2.21,0,0,0-2.25-2.27"></path></g></g></svg>