<svg xmlns="http://www.w3.org/2000/svg" viewBox="0 0 478.05 143.65"><defs><style>.adc3c528-03d6-497f-a250-02c7ddacad6d{fill:none;stroke:#fff;stroke-linejoin:round;stroke-width:2.3px;opacity:0.3;}.a487c40d-e605-46db-adf1-c009d52fbed5{fill:#fff;}</style></defs><title>TXT STEEL FRAME LINEAL</title><g id="e8c1dfcf-fa9d-49a6-a098-1b56ab16da5a" data-name="Capa 2"><g id="eee81e85-ac88-40aa-97c8-6867d667b2b7" data-name="Capa 1"><path class="adc3c528-03d6-497f-a250-02c7ddacad6d" d="M43.47,48.47a17.81,17.81,0,0,1-2.85,10,18.64,18.64,0,0,1-8.22,6.78,30.57,30.57,0,0,1-12.61,2.42A50.67,50.67,0,0,1,9.66,66.8a37.72,37.72,0,0,1-8.51-2.95V49.3A48.71,48.71,0,0,0,10.86,53a36.43,36.43,0,0,0,9.26,1.34q3.63,0,5.33-1.26a3.88,3.88,0,0,0,1.7-3.24,3.54,3.54,0,0,0-.69-2.17,7.75,7.75,0,0,0-2.19-1.88,87.87,87.87,0,0,0-8-3.89,38.14,38.14,0,0,1-8.86-5.21A15.93,15.93,0,0,1,3,31a19.22,19.22,0,0,1-1.43-7.73q0-8.35,6.08-13t16.7-4.67A46.89,46.89,0,0,1,43.47,9.87l-5,12.61Q30,18.6,23.84,18.59a7.58,7.58,0,0,0-4.63,1.12,3.38,3.38,0,0,0-1.45,2.77,4,4,0,0,0,1.84,3.18q1.84,1.41,10,5.12,7.81,3.53,10.85,7.55A16.32,16.32,0,0,1,43.47,48.47Z"></path><path class="adc3c528-03d6-497f-a250-02c7ddacad6d" d="M51.53,8.34a6.82,6.82,0,0,1,2-5.41c1.35-1.19,3.52-1.78,6.53-1.78s5.19.61,6.57,1.82a6.79,6.79,0,0,1,2.06,5.37q0,7.11-8.63,7.11T51.53,8.34ZM68.1,66.82H51.94V20H68.1Z"></path><path class="adc3c528-03d6-497f-a250-02c7ddacad6d" d="M115.55,52.44q0,7.52-5.13,11.37T95.71,67.65a64.14,64.14,0,0,1-9-.56,38.39,38.39,0,0,1-7.85-2V52.11a49.14,49.14,0,0,0,8.24,2.73,35.11,35.11,0,0,0,8,1.07q5.25,0,5.25-2.4a2.72,2.72,0,0,0-1.47-2.21,69.35,69.35,0,0,0-8.53-3.78q-6.45-2.64-9-6A13.7,13.7,0,0,1,78.73,33a11.81,11.81,0,0,1,5-10.16q5-3.64,14.26-3.64a36.28,36.28,0,0,1,8.7,1,51.85,51.85,0,0,1,8.45,3L110.8,33.55A50.87,50.87,0,0,0,104,31.09a23,23,0,0,0-5.87-1c-2.65,0-4,.65-4,1.94a2.42,2.42,0,0,0,1.39,2,75.76,75.76,0,0,0,8,3.45,30.52,30.52,0,0,1,7.34,4,11.85,11.85,0,0,1,3.55,4.56A16,16,0,0,1,115.55,52.44Z"></path><path class="adc3c528-03d6-497f-a250-02c7ddacad6d" d="M147.46,54.88a24.17,24.17,0,0,0,7.81-1.61V65.05a32.35,32.35,0,0,1-6.22,2,35.2,35.2,0,0,1-6.93.6c-5.42,0-9.34-1.33-11.73-4s-3.6-6.74-3.6-12.25V32.11h-5.66V25.53l7.19-5.08,4.17-9.84h10.59V20h11.49V32.11H143.08V50.33Q143.08,54.88,147.46,54.88Z"></path><path class="adc3c528-03d6-497f-a250-02c7ddacad6d" d="M186.06,67.65q-11.7,0-18.17-6.22t-6.46-17.71q0-11.86,6-18.21t17.11-6.34q10.58,0,16.34,5.52t5.77,15.89v7.19H177.75a8,8,0,0,0,2.87,6.16A11.27,11.27,0,0,0,188,56.16a35.4,35.4,0,0,0,7.83-.81,38.07,38.07,0,0,0,7.75-2.75V64.22a28.39,28.39,0,0,1-7.85,2.68A54,54,0,0,1,186.06,67.65Zm-.95-37.49a6.73,6.73,0,0,0-4.78,1.8q-1.92,1.8-2.25,5.64H192a8.09,8.09,0,0,0-1.92-5.41A6.37,6.37,0,0,0,185.11,30.16Z"></path><path class="adc3c528-03d6-497f-a250-02c7ddacad6d" d="M273.26,66.82V41.36q0-4.74-1.3-7.13a4.37,4.37,0,0,0-4.11-2.37A5.8,5.8,0,0,0,262.39,35c-1.16,2.12-1.73,5.44-1.73,10V66.82H244.45V41.36a16.1,16.1,0,0,0-1.23-7.13,4.21,4.21,0,0,0-4-2.37,5.8,5.8,0,0,0-5.54,3.39q-1.74,3.39-1.74,11.07v20.5H215.77V20H228l2,5.78h.95a12.1,12.1,0,0,1,5.39-4.92,18.39,18.39,0,0,1,8-1.69q10.13,0,14.22,6.16h1.28a13.22,13.22,0,0,1,5.52-4.53,18.3,18.3,0,0,1,7.79-1.63q8.31,0,12.27,4.26c2.65,2.83,4,7.15,4,12.93V66.82Z"></path><path class="adc3c528-03d6-497f-a250-02c7ddacad6d" d="M331,66.82l-3.1-6.2h-.33a18.43,18.43,0,0,1-6.66,5.54,22,22,0,0,1-8.76,1.49q-6.62,0-10.41-4t-3.81-11.16q0-7.47,5.21-11.14t15.09-4.11L326,37v-.66q0-5.78-5.71-5.78-5.12,0-13,3.47l-4.67-10.66q8.17-4.23,20.66-4.22,9,0,14,4.46t4.94,12.48V66.82ZM319,56.24a7.27,7.27,0,0,0,5-1.86,6.17,6.17,0,0,0,2.09-4.83V45.91l-3.72.16q-8,.3-8,5.87Q314.38,56.25,319,56.24Z"></path><path class="a487c40d-e605-46db-adf1-c009d52fbed5" d="M43.47,124.47a17.81,17.81,0,0,1-2.85,10,18.64,18.64,0,0,1-8.22,6.78,30.57,30.57,0,0,1-12.61,2.42,50.67,50.67,0,0,1-10.13-.85,37.72,37.72,0,0,1-8.51-3V125.3A48.71,48.71,0,0,0,10.86,129a36.43,36.43,0,0,0,9.26,1.34q3.63,0,5.33-1.26a3.88,3.88,0,0,0,1.7-3.24,3.54,3.54,0,0,0-.69-2.17,7.75,7.75,0,0,0-2.19-1.88,87.87,87.87,0,0,0-8-3.89,38.14,38.14,0,0,1-8.86-5.21A15.93,15.93,0,0,1,3,107a19.22,19.22,0,0,1-1.43-7.73q0-8.35,6.08-13t16.7-4.67a46.89,46.89,0,0,1,19.13,4.34l-5,12.61Q30,94.6,23.84,94.59a7.58,7.58,0,0,0-4.63,1.12,3.38,3.38,0,0,0-1.45,2.77,4,4,0,0,0,1.84,3.18q1.84,1.41,10,5.12,7.81,3.52,10.85,7.55A16.32,16.32,0,0,1,43.47,124.47Z"></path><path class="a487c40d-e605-46db-adf1-c009d52fbed5" d="M74.8,130.88a24.12,24.12,0,0,0,7.81-1.61v11.78a32.35,32.35,0,0,1-6.22,2,35.16,35.16,0,0,1-6.92.6q-8.14,0-11.74-4t-3.6-12.25v-19.3H48.47v-6.58l7.19-5.08,4.18-9.84H70.42V96H81.91v12.11H70.42v18.22Q70.42,130.88,74.8,130.88Z"></path><path class="a487c40d-e605-46db-adf1-c009d52fbed5" d="M113.4,143.65q-11.7,0-18.16-6.22t-6.47-17.71q0-11.86,6-18.21t17.11-6.34q10.57,0,16.35,5.52T134,116.58v7.19H105.09a8,8,0,0,0,2.88,6.16,11.22,11.22,0,0,0,7.37,2.23,35.4,35.4,0,0,0,7.83-.81,37.86,37.86,0,0,0,7.75-2.75v11.62a28.39,28.39,0,0,1-7.85,2.68A53.87,53.87,0,0,1,113.4,143.65Zm-1-37.49a6.71,6.71,0,0,0-4.77,1.8,8.45,8.45,0,0,0-2.26,5.64h13.89a8.09,8.09,0,0,0-1.92-5.41A6.35,6.35,0,0,0,112.45,106.16Z"></path><path class="a487c40d-e605-46db-adf1-c009d52fbed5" d="M165.72,143.65q-11.68,0-18.16-6.22t-6.47-17.71q0-11.86,6-18.21t17.11-6.34q10.59,0,16.35,5.52t5.77,15.89v7.19H157.42a8,8,0,0,0,2.87,6.16,11.23,11.23,0,0,0,7.38,2.23,35.53,35.53,0,0,0,7.83-.81,38.28,38.28,0,0,0,7.75-2.75v11.62a28.57,28.57,0,0,1-7.86,2.68A53.87,53.87,0,0,1,165.72,143.65Zm-.95-37.49A6.71,6.71,0,0,0,160,108q-1.92,1.8-2.25,5.64h13.88a8,8,0,0,0-1.92-5.41A6.35,6.35,0,0,0,164.77,106.16Z"></path><path class="a487c40d-e605-46db-adf1-c009d52fbed5" d="M211.6,142.82H195.44V78.51H211.6Z"></path><path class="a487c40d-e605-46db-adf1-c009d52fbed5" d="M251.4,108.11h-10v34.71H225.28V108.11h-6.2v-7.94l6.53-4v-.78q0-9.26,3.78-13.31t12.13-4a35,35,0,0,1,6.1.5,48,48,0,0,1,6.67,1.73l-3.47,10.46a21.77,21.77,0,0,0-5.83-.83,3.13,3.13,0,0,0-2.7,1.14,6.25,6.25,0,0,0-.85,3.7V96h10Z"></path><path class="a487c40d-e605-46db-adf1-c009d52fbed5" d="M286,95.17a23.42,23.42,0,0,1,4,.33l.91.17-1.45,15.25a23.7,23.7,0,0,0-5.49-.5q-5.29,0-7.69,2.42t-2.4,7v23H257.76V96h12l2.52,7.48h.79a16.21,16.21,0,0,1,5.64-6A13.48,13.48,0,0,1,286,95.17Z"></path><path class="a487c40d-e605-46db-adf1-c009d52fbed5" d="M328,142.82l-3.1-6.2h-.33a18.33,18.33,0,0,1-6.65,5.54,22,22,0,0,1-8.76,1.49q-6.62,0-10.42-4T295,128.52q0-7.47,5.21-11.14t15.08-4.11l7.81-.25v-.66q0-5.77-5.7-5.78-5.13,0-13,3.47l-4.67-10.66q8.19-4.23,20.67-4.22,9,0,13.94,4.46t4.94,12.48v30.71Zm-12-10.58a7.29,7.29,0,0,0,5-1.86,6.17,6.17,0,0,0,2.09-4.83v-3.64l-3.72.16q-8,.3-8,5.87Q311.45,132.25,316,132.24Z"></path><path class="a487c40d-e605-46db-adf1-c009d52fbed5" d="M407.71,142.82V117.36q0-4.74-1.31-7.13a4.35,4.35,0,0,0-4.11-2.37,5.77,5.77,0,0,0-5.45,3.18q-1.74,3.18-1.74,10v21.82H378.9V117.36a15.94,15.94,0,0,0-1.24-7.13,4.2,4.2,0,0,0-4-2.37,5.82,5.82,0,0,0-5.54,3.39q-1.73,3.39-1.73,11.07v20.5H350.22V96h12.19l2,5.78h.95a12,12,0,0,1,5.39-4.92,18.33,18.33,0,0,1,8-1.69q10.13,0,14.21,6.16h1.29a13.25,13.25,0,0,1,5.51-4.53,18.36,18.36,0,0,1,7.79-1.63q8.31,0,12.28,4.26c2.64,2.83,4,7.15,4,12.93v30.46Z"></path><path class="a487c40d-e605-46db-adf1-c009d52fbed5" d="M457.47,143.65q-11.7,0-18.17-6.22t-6.46-17.71q0-11.86,6-18.21t17.11-6.34q10.57,0,16.34,5.52t5.77,15.89v7.19H449.16a8,8,0,0,0,2.87,6.16,11.27,11.27,0,0,0,7.38,2.23,35.4,35.4,0,0,0,7.83-.81A38.07,38.07,0,0,0,475,128.6v11.62a28.39,28.39,0,0,1-7.85,2.68A54,54,0,0,1,457.47,143.65Zm-1-37.49a6.73,6.73,0,0,0-4.78,1.8q-1.92,1.8-2.25,5.64h13.89a8.09,8.09,0,0,0-1.92-5.41A6.37,6.37,0,0,0,456.52,106.16Z"></path></g></g></svg>