<svg xmlns="http://www.w3.org/2000/svg" viewBox="0 0 96.51 108.44"><defs><style>.a271d26d-29ee-47f0-8353-d0356c457f1e{fill:#548f9c;}</style></defs><title>1_EFICIENCIA_ENERGÉTICA</title><g id="a254cb8f-75d3-4dbd-961c-9eb6599fcd76" data-name="Capa 2"><g id="a1cc0d79-9f66-4628-ac47-b6a17c4d7537" data-name="Capa 1"><path class="a271d26d-29ee-47f0-8353-d0356c457f1e" d="M48.82,15.92A33.53,33.53,0,0,0,35.43,80.19V96a7.51,7.51,0,0,0,6,7.36c.18,2.9,3.62,5.13,8,5.13s7.74-2.2,8-5.06A7.51,7.51,0,0,0,63.94,96V81h0V79.38A33.53,33.53,0,0,0,48.82,15.92Zm.64,90.52c-3,0-5.6-1.33-6-3H55.42C55.06,105.11,52.48,106.44,49.46,106.44Zm13-28.58-.57.27V80.3a27.81,27.81,0,0,1-4,1,1,1,0,0,0,.18,2h.18a32.26,32.26,0,0,0,3.63-.88V96a5.51,5.51,0,0,1-5.5,5.51H42.93A5.51,5.51,0,0,1,37.43,96V82.75a47.74,47.74,0,0,0,11.66,1.32,1,1,0,0,0,0-2,44.33,44.33,0,0,1-11.66-1.4V78.86l-.62-.26a31.52,31.52,0,1,1,25.7-.74Z"></path><path class="a271d26d-29ee-47f0-8353-d0356c457f1e" d="M48.82,41.69a6.78,6.78,0,1,0,6.78,6.78A6.78,6.78,0,0,0,48.82,41.69Zm0,11.56a4.78,4.78,0,1,1,4.78-4.78A4.78,4.78,0,0,1,48.82,53.25Z"></path><path class="a271d26d-29ee-47f0-8353-d0356c457f1e" d="M60.93,40.7,62.73,39l-4.46-4.74-2,1.9A14.64,14.64,0,0,0,52,34.44V31.73H45.48v2.75A14.1,14.1,0,0,0,41,36.39l-2.21-2.06L34.38,39.1l2.11,2a14.5,14.5,0,0,0-1.58,3.74H32.14v6.51h2.59a14.06,14.06,0,0,0,1.36,3.84l-2.11,2,4.46,4.74,1.91-1.8a14.31,14.31,0,0,0,5.13,2.37v2.65H52V62.5a14.4,14.4,0,0,0,5.14-2.28l1.71,1.59L63.27,57l-1.81-1.69a14.33,14.33,0,0,0,1.47-4h2.58V44.81H62.74A14.12,14.12,0,0,0,60.93,40.7Zm2.58,8.62h-2.3l-.12.87A12.23,12.23,0,0,1,59.34,55l-.44.7,1.55,1.43L58.74,59l-1.5-1.39-.67.54a12.3,12.3,0,0,1-5.74,2.56l-.84.14v2.28H47.48v-2.3l-.83-.15A12.26,12.26,0,0,1,40.93,58l-.68-.56-1.72,1.62L36.8,57.23l1.82-1.71-.42-.69a12.27,12.27,0,0,1-1.64-4.64l-.12-.87h-2.3V46.81h2.39l.16-.8a12.24,12.24,0,0,1,1.92-4.54l.49-.71L37.2,39l1.71-1.84L40.85,39l.67-.49a12.33,12.33,0,0,1,5.13-2.19l.83-.15v-2.4H50v2.39l.84.13a12.5,12.5,0,0,1,5,2l.67.46,1.71-1.62,1.72,1.83-1.62,1.53.52.71A12.32,12.32,0,0,1,61,46l.16.8h2.38Z"></path><path class="a271d26d-29ee-47f0-8353-d0356c457f1e" d="M48.82,11a1,1,0,0,0,1-1V1a1,1,0,0,0-2,0v9A1,1,0,0,0,48.82,11Z"></path><path class="a271d26d-29ee-47f0-8353-d0356c457f1e" d="M26.5,17a1,1,0,0,0,.79.39,1,1,0,0,0,.62-.22,1,1,0,0,0,.17-1.4L22.93,9.15a1,1,0,1,0-1.58,1.23Z"></path><path class="a271d26d-29ee-47f0-8353-d0356c457f1e" d="M69.54,17.38a1,1,0,0,0,.79-.39l5.15-6.61A1,1,0,1,0,73.9,9.15l-5.15,6.61a1,1,0,0,0,.17,1.4A1,1,0,0,0,69.54,17.38Z"></path><path class="a271d26d-29ee-47f0-8353-d0356c457f1e" d="M92,26a1,1,0,0,0-1.36-.37l-7.79,4.5a1,1,0,0,0-.37,1.36,1,1,0,0,0,.87.5,1,1,0,0,0,.5-.13l7.79-4.5A1,1,0,0,0,92,26Z"></path><path class="a271d26d-29ee-47f0-8353-d0356c457f1e" d="M9.28,50.59H1a1,1,0,0,0,0,2H9.28a1,1,0,1,0,0-2Z"></path><path class="a271d26d-29ee-47f0-8353-d0356c457f1e" d="M95.51,50.59H87.23a1,1,0,1,0,0,2h8.28a1,1,0,1,0,0-2Z"></path><path class="a271d26d-29ee-47f0-8353-d0356c457f1e" d="M14,30.1,6.19,25.6A1,1,0,0,0,4.82,26a1,1,0,0,0,.37,1.36L13,31.83a1,1,0,0,0,.5.13,1,1,0,0,0,.86-.5A1,1,0,0,0,14,30.1Z"></path></g></g></svg>