<svg xmlns="http://www.w3.org/2000/svg" viewBox="0 0 103.64 99.96"><defs><style>.a984d933-13dd-474c-b117-1f298b80dc1c{fill:#548f9c;}</style></defs><title>2 DURABILIDAD</title><g id="a9a6b338-9ea3-4e83-88f2-2b95c3cc8b39" data-name="Capa 2"><g id="fa97dca5-eb03-4929-96d8-47955fc01257" data-name="Capa 1"><path class="a984d933-13dd-474c-b117-1f298b80dc1c" d="M98.65,53.46H75.46V23.07l27.11-16,.49-.29V1.91a1.5,1.5,0,0,0-.32-.91,1.1,1.1,0,0,0,0-.18A1.12,1.12,0,0,0,101.63,0L72.2.39.84,38.8l0,0a1.1,1.1,0,0,0-.51,1.07,2,2,0,0,0-.29,1V97.08A2.88,2.88,0,0,0,2.88,100H36.07v-.43l67.57-39.37V58.45A5,5,0,0,0,98.65,53.46Zm2.41-47.79L36.07,44V40.44L58.76,27.28l42.3-24.54ZM73.46,24.25V53.89L7.9,92.1V46.71H34.31a1.78,1.78,0,0,0,1-.32l.15,0a1.38,1.38,0,0,0,.71-.19ZM72.72,2.38,98.27,2l-33.6,19.5L34.8,38.87H4.94ZM34.07,98H2.88A.87.87,0,0,1,2,97.08l0-56.21h32v3.84H5.9V94.84H31.82a2.25,2.25,0,0,1,2.25,2.25ZM101.64,59,36.07,97.22v-.13a4.26,4.26,0,0,0-4.25-4.25H10.6L74.73,55.46H98.65l.24,0-1.71,1,1,1.72L101,56.59a3,3,0,0,1,.67,1.86Z"></path><rect class="a984d933-13dd-474c-b117-1f298b80dc1c" x="42.12" y="87.57" width="4" height="2" transform="matrix(0.86, -0.5, 0.5, 0.86, -38.6, 34.26)"></rect><rect class="a984d933-13dd-474c-b117-1f298b80dc1c" x="49.03" y="83.54" width="4" height="2" transform="matrix(0.86, -0.5, 0.5, 0.86, -35.63, 37.19)"></rect><rect class="a984d933-13dd-474c-b117-1f298b80dc1c" x="35.2" y="91.6" width="4" height="2" transform="matrix(0.86, -0.5, 0.5, 0.86, -41.57, 31.33)"></rect><rect class="a984d933-13dd-474c-b117-1f298b80dc1c" x="55.94" y="79.51" width="4" height="2" transform="matrix(0.86, -0.5, 0.5, 0.86, -32.66, 40.13)"></rect><rect class="a984d933-13dd-474c-b117-1f298b80dc1c" x="83.59" y="63.4" width="4" height="2" transform="matrix(0.86, -0.5, 0.5, 0.86, -20.79, 51.86)"></rect><rect class="a984d933-13dd-474c-b117-1f298b80dc1c" x="90.5" y="59.37" width="4" height="2" transform="matrix(0.86, -0.5, 0.5, 0.86, -17.82, 54.79)"></rect><rect class="a984d933-13dd-474c-b117-1f298b80dc1c" x="76.67" y="67.43" width="4" height="2" transform="matrix(0.86, -0.5, 0.5, 0.86, -23.75, 48.92)"></rect><rect class="a984d933-13dd-474c-b117-1f298b80dc1c" x="62.85" y="75.49" width="4" height="2" transform="matrix(0.86, -0.5, 0.5, 0.86, -29.69, 43.06)"></rect><rect class="a984d933-13dd-474c-b117-1f298b80dc1c" x="69.76" y="71.46" width="4" height="2" transform="matrix(0.86, -0.5, 0.5, 0.86, -26.72, 45.99)"></rect></g></g></svg>