<svg xmlns="http://www.w3.org/2000/svg" viewBox="0 0 135.6 100.45"><defs><style>.a642c168-ed97-4f77-bae2-bf1fb74a617c{fill:#548f9c;}</style></defs><title>3 SEGURIDAD</title><g id="e96cfc77-098d-4dd8-8f0f-46abadd13f03" data-name="Capa 2"><g id="b5696815-567c-42eb-82ef-07b174e32cd9" data-name="Capa 1"><path class="a642c168-ed97-4f77-bae2-bf1fb74a617c" d="M43.53,50.9a20,20,0,0,0,6,14.61A25.44,25.44,0,0,0,67.33,72.3h.46c12.9-.2,21.63-7.48,24-20,1.6-8.6-3.36-23.87-5.57-30a1.55,1.55,0,0,0-1.7-1,1.52,1.52,0,0,0-1.29,1.48,36.34,36.34,0,0,1-1.87,11,5.9,5.9,0,0,1-5.26,3.48c-1.88.15-4.29-.39-5.4-2.37-1.52-2.73-.31-6.44,1.09-10.73,1.31-4,2.8-8.56,2.14-13.11A21.52,21.52,0,0,0,69.76.61,1.55,1.55,0,0,0,67.88.14a1.58,1.58,0,0,0-.95,1.71c.49,3.18.36,7.25-4.33,13.33-1.76,2.29-3.09,6.34-4,12.08-3-5.48-10.11-11-10.49-11.28l-.2-.16-.81-.12-.36.42c-.4.47-.4.47.42,3,1,3.12,3.13,9.59,3.13,12.39S48.86,37,47.29,39.8C45.44,43.1,43.52,46.52,43.53,50.9Zm8.81-19.39c0-2.79-1.68-8.23-2.84-11.82,3.58,3.18,8.44,8.28,8.44,11.82v.42c0,1.76,0,2.35,1,2.4S60,33.49,60,32.72c.92-10.22,2.77-14.51,4.16-16.32,4.43-5.73,5.12-10,4.91-13.27a21.11,21.11,0,0,1,2.82,8.21c.59,4.09-.75,8.21-2.06,12.2-1.48,4.54-2.88,8.84-.93,12.33,1.31,2.34,4.1,3.64,7.3,3.38a7.87,7.87,0,0,0,7-4.78,36.27,36.27,0,0,0,1.87-9.3c2.34,6.9,6.07,19.53,4.71,26.79C88.52,58.7,84,70.05,67.76,70.3c-6.62.1-12.74-2.16-16.87-6.21a18.13,18.13,0,0,1-5.36-13.2c0-3.85,1.78-7,3.51-10.11S52.34,34.89,52.34,31.51Z"></path><path class="a642c168-ed97-4f77-bae2-bf1fb74a617c" d="M130.05,89.36H119.39V74.76h7l-16-17.15-16,17.15h7v14.6H35.94V74.76h7L26.76,57.33,11.13,74.76h7v14.6H5.54a5.55,5.55,0,0,0,0,11.09H130.05a5.55,5.55,0,1,0,0-11.09ZM99.12,72.76l11.36-12.21,11.36,12.21h-4.45v16.6H103.57V72.76Zm-83.51,0L26.79,60.3,38.38,72.76H33.94v16.6H20.11V72.76ZM130.05,98.45H5.54a3.55,3.55,0,0,1,0-7.09H130.05a3.55,3.55,0,1,1,0,7.09Z"></path></g></g></svg>