<svg xmlns="http://www.w3.org/2000/svg" viewBox="0 0 80.8 96.14"><defs><style>.aa4c3c6c-5a93-41c3-8b17-314e33e8a16a{fill:#548f9c;}</style></defs><title>4 FLEXIBILIDAD ARQ</title><g id="fe05a555-6a79-4a85-8823-e1d33077bcf0" data-name="Capa 2"><g id="bf963ef6-6b8b-4d3b-927c-6c63ef9e9cc7" data-name="Capa 1"><path class="aa4c3c6c-5a93-41c3-8b17-314e33e8a16a" d="M75.78,25.47c-9.1,6.73-21.29,10.44-34.32,10.44-13.59,0-26.59-4.18-35.68-11.48a1.5,1.5,0,0,0-1.87,2.34c9.6,7.71,23.29,12.14,37.55,12.14,13.67,0,26.49-3.92,36.1-11a1.5,1.5,0,1,0-1.78-2.41Z"></path><path class="aa4c3c6c-5a93-41c3-8b17-314e33e8a16a" d="M77.26,65.94C67.68,59,55,55.13,41.46,55.13,26.68,55.13,12.67,59.83,3,68a1.5,1.5,0,0,0-.17,2.12A1.47,1.47,0,0,0,4,70.67a1.5,1.5,0,0,0,1-.36c9.13-7.74,22.44-12.18,36.52-12.18,12.87,0,25,3.63,34,10.23a1.5,1.5,0,1,0,1.77-2.42Z"></path><rect class="aa4c3c6c-5a93-41c3-8b17-314e33e8a16a" y="45.59" width="2" height="3"></rect><rect class="aa4c3c6c-5a93-41c3-8b17-314e33e8a16a" x="14.13" y="45.59" width="4.04" height="3"></rect><rect class="aa4c3c6c-5a93-41c3-8b17-314e33e8a16a" x="22.21" y="45.59" width="4.04" height="3"></rect><rect class="aa4c3c6c-5a93-41c3-8b17-314e33e8a16a" x="6.04" y="45.59" width="4.04" height="3"></rect><rect class="aa4c3c6c-5a93-41c3-8b17-314e33e8a16a" x="30.29" y="45.59" width="4.04" height="3"></rect><rect class="aa4c3c6c-5a93-41c3-8b17-314e33e8a16a" x="70.71" y="45.59" width="4.04" height="3"></rect><rect class="aa4c3c6c-5a93-41c3-8b17-314e33e8a16a" x="62.63" y="45.59" width="4.04" height="3"></rect><rect class="aa4c3c6c-5a93-41c3-8b17-314e33e8a16a" x="38.38" y="45.59" width="4.04" height="3"></rect><rect class="aa4c3c6c-5a93-41c3-8b17-314e33e8a16a" x="54.55" y="45.59" width="4.04" height="3"></rect><rect class="aa4c3c6c-5a93-41c3-8b17-314e33e8a16a" x="46.46" y="45.59" width="4.04" height="3"></rect><rect class="aa4c3c6c-5a93-41c3-8b17-314e33e8a16a" x="78.8" y="45.59" width="2" height="3"></rect><path class="aa4c3c6c-5a93-41c3-8b17-314e33e8a16a" d="M38.31,26.55a2,2,0,0,0,1.54.71,1.72,1.72,0,0,0,.39,0,1.55,1.55,0,0,0,.52.1,1.51,1.51,0,0,0,1.16-.55l11-13.34a1.5,1.5,0,0,0-2.31-1.91L41.9,22.07V1.5a1.5,1.5,0,0,0-3,0V22.65L30.62,13.1a1.5,1.5,0,1,0-2.27,2Z"></path><path class="aa4c3c6c-5a93-41c3-8b17-314e33e8a16a" d="M42.05,69.37a1.49,1.49,0,0,0-1.7-.43,2,2,0,0,0-1.9.65l-10,11.48a1.5,1.5,0,1,0,2.27,2L39,73.49V94.64a1.5,1.5,0,0,0,3,0V74.07l8.7,10.55a1.48,1.48,0,0,0,1.15.55,1.51,1.51,0,0,0,1-.35,1.49,1.49,0,0,0,.2-2.11Z"></path></g></g></svg>