<svg xmlns="http://www.w3.org/2000/svg" viewBox="0 0 62.4 120.72"><defs><style>.baaf9ce0-b819-4f51-9af3-11596b8a4ddb{fill:#548f9c;}</style></defs><title>5 SUSTENTABLE</title><g id="eaf765fe-fc00-43a6-99d0-1f43b1f16466" data-name="Capa 2"><g id="a4d497cc-84cc-49f1-bfba-d300dd84af7c" data-name="Capa 1"><path class="baaf9ce0-b819-4f51-9af3-11596b8a4ddb" d="M56.11,93.69a28,28,0,0,0-15.66-6.5,60.56,60.56,0,0,1-3.72-12.74A110.94,110.94,0,0,1,35.45,57.6a8.27,8.27,0,0,0,6.84-9.94,15.41,15.41,0,0,0,7.53-13.28v-18H47.39V4.61A4.62,4.62,0,0,0,42.79,0H42.5a4.62,4.62,0,0,0-4.61,4.61V16.36H30.18V4.61A4.61,4.61,0,0,0,25.58,0h-.29a4.61,4.61,0,0,0-4.6,4.61V16.36H18.5v18A15.4,15.4,0,0,0,26,47.66a8.27,8.27,0,0,0,6.83,9.94,120.49,120.49,0,0,0,.7,12.89c-.36,1.25-2.38,7.85-6,12.48a50.36,50.36,0,0,0-5.69-.39c-4.5,0-11,2.44-14.29,7C1.61,97.81.33,110.87.28,111.42l-.28,3,2.37-1.85A49.66,49.66,0,0,1,10,108a24.32,24.32,0,0,1,5.92-1.68c4.35-.87,9.29-1.86,12.3-6.57,2.89-4.54,1.66-12.78,1.24-15.09A36.39,36.39,0,0,0,34.38,76a63.87,63.87,0,0,0,4.23,13.57C37.49,93,35.89,101.28,42.5,110c3.35,4.45,10.89,9.59,17.71,10.51l1.21.17.24-1.2C61.81,118.77,65.22,101.12,56.11,93.69ZM40.48,4.61a2,2,0,0,1,2-2h.29a2,2,0,0,1,2,2V16.36H40.48Zm-17.2,0a2,2,0,0,1,2-2h.29a2,2,0,0,1,2,2V16.36H23.28ZM21.1,34.38V19H47.22v3.86H35.45V25.4H47.22v9a12.81,12.81,0,0,1-7,11.48,12.28,12.28,0,0,1-2.31.9,13,13,0,0,1-3.53.5H34a12.82,12.82,0,0,1-4.1-.68,12.51,12.51,0,0,1-1.74-.72A12.81,12.81,0,0,1,21.1,34.38Zm7.33,15a4.93,4.93,0,0,1,0-.55l.09,0,.38.13c.39.13.79.26,1.19.36l.56.13c.36.08.73.14,1.11.19l.54.08c.51.05,1,.08,1.55.09h.56c.52,0,1,0,1.55-.09l.54-.07c.37-.06.75-.12,1.12-.2l.54-.13c.42-.11.82-.23,1.23-.37l.34-.11.1,0a4.93,4.93,0,0,1,0,.55,5.73,5.73,0,0,1-11.46,0ZM26,98.38c-2.41,3.79-6.4,4.58-10.61,5.43a26.33,26.33,0,0,0-6.58,1.91c-2.41,1.2-4.28,2.29-5.6,3.12.69-4.23,2.46-12.3,6.39-17.78,2.92-4.06,8.89-5.89,12.19-5.89,1.2,0,2.46.08,3.52.17-5,5-11.41,10.78-11.48,10.84l1.73,1.93c.07-.06,6.54-5.91,11.62-11C27.64,90.54,27.8,95.63,26,98.38Zm33.28,19.39a28.36,28.36,0,0,1-14.75-9.29A19.85,19.85,0,0,1,40.4,93.24,40.24,40.24,0,0,0,49.18,105l1.69-2c-3.39-2.92-6.62-7.62-9.2-13.07a25.58,25.58,0,0,1,12.81,5.75C61.1,101.1,59.9,113.75,59.32,117.77Z"></path></g></g></svg>